<svg id="visual" viewBox="0 0 1440 900" width="1440" height="900" xmlns="http://www.w3.org/2000/svg" xmlns:xlink="http://www.w3.org/1999/xlink" version="1.1"><rect x="0" y="0" width="1440" height="900" fill="#02020A"></rect><defs><linearGradient id="grad1_0" x1="37.5%" y1="0%" x2="100%" y2="100%"><stop offset="17.999999999999996%" stop-color="#8c30f5" stop-opacity="1"></stop><stop offset="82%" stop-color="#8c30f5" stop-opacity="1"></stop></linearGradient></defs><defs><linearGradient id="grad1_1" x1="37.5%" y1="0%" x2="100%" y2="100%"><stop offset="17.999999999999996%" stop-color="#8c30f5" stop-opacity="1"></stop><stop offset="82%" stop-color="#5433bb" stop-opacity="1"></stop></linearGradient></defs><defs><linearGradient id="grad1_2" x1="37.5%" y1="0%" x2="100%" y2="100%"><stop offset="17.999999999999996%" stop-color="#2b2a7f" stop-opacity="1"></stop><stop offset="82%" stop-color="#5433bb" stop-opacity="1"></stop></linearGradient></defs><defs><linearGradient id="grad1_3" x1="37.5%" y1="0%" x2="100%" y2="100%"><stop offset="17.999999999999996%" stop-color="#2b2a7f" stop-opacity="1"></stop><stop offset="82%" stop-color="#161b44" stop-opacity="1"></stop></linearGradient></defs><defs><linearGradient id="grad1_4" x1="37.5%" y1="0%" x2="100%" y2="100%"><stop offset="17.999999999999996%" stop-color="#02020a" stop-opacity="1"></stop><stop offset="82%" stop-color="#161b44" stop-opacity="1"></stop></linearGradient></defs><defs><linearGradient id="grad2_0" x1="0%" y1="0%" x2="62.5%" y2="100%"><stop offset="17.999999999999996%" stop-color="#8c30f5" stop-opacity="1"></stop><stop offset="82%" stop-color="#8c30f5" stop-opacity="1"></stop></linearGradient></defs><defs><linearGradient id="grad2_1" x1="0%" y1="0%" x2="62.5%" y2="100%"><stop offset="17.999999999999996%" stop-color="#5433bb" stop-opacity="1"></stop><stop offset="82%" stop-color="#8c30f5" stop-opacity="1"></stop></linearGradient></defs><defs><linearGradient id="grad2_2" x1="0%" y1="0%" x2="62.5%" y2="100%"><stop offset="17.999999999999996%" stop-color="#5433bb" stop-opacity="1"></stop><stop offset="82%" stop-color="#2b2a7f" stop-opacity="1"></stop></linearGradient></defs><defs><linearGradient id="grad2_3" x1="0%" y1="0%" x2="62.5%" y2="100%"><stop offset="17.999999999999996%" stop-color="#161b44" stop-opacity="1"></stop><stop offset="82%" stop-color="#2b2a7f" stop-opacity="1"></stop></linearGradient></defs><defs><linearGradient id="grad2_4" x1="0%" y1="0%" x2="62.5%" y2="100%"><stop offset="17.999999999999996%" stop-color="#161b44" stop-opacity="1"></stop><stop offset="82%" stop-color="#02020a" stop-opacity="1"></stop></linearGradient></defs><g transform="translate(1440, 0)"><path d="M0 509.4C-90.9 497.2 -181.9 484.9 -254.7 441.2C-327.6 397.5 -382.3 322.3 -421.8 243.5C-461.2 164.7 -485.3 82.4 -509.4 0L0 0Z" fill="#101228"></path><path d="M0 407.5C-72.7 397.7 -145.5 387.9 -203.8 352.9C-262.1 318 -305.9 257.8 -337.4 194.8C-369 131.8 -388.3 65.9 -407.5 0L0 0Z" fill="#1e2361"></path><path d="M0 305.7C-54.6 298.3 -109.1 290.9 -152.8 264.7C-196.5 238.5 -229.4 193.4 -253.1 146.1C-276.7 98.8 -291.2 49.4 -305.7 0L0 0Z" fill="#3d2f9e"></path><path d="M0 203.8C-36.4 198.9 -72.7 194 -101.9 176.5C-131 159 -152.9 128.9 -168.7 97.4C-184.5 65.9 -194.1 32.9 -203.8 0L0 0Z" fill="#6e34d9"></path><path d="M0 101.9C-18.2 99.4 -36.4 97 -50.9 88.2C-65.5 79.5 -76.5 64.5 -84.4 48.7C-92.2 32.9 -97.1 16.5 -101.9 0L0 0Z" fill="#8c30f5"></path></g><g transform="translate(0, 900)"><path d="M0 -509.4C83.4 -487.2 166.9 -464.9 245.5 -425.2C324.1 -385.5 398 -328.5 441.2 -254.7C484.4 -180.9 496.9 -90.5 509.4 0L0 0Z" fill="#101228"></path><path d="M0 -407.5C66.7 -389.7 133.5 -371.9 196.4 -340.2C259.3 -308.4 318.4 -262.8 352.9 -203.8C387.5 -144.8 397.5 -72.4 407.5 0L0 0Z" fill="#1e2361"></path><path d="M0 -305.7C50.1 -292.3 100.1 -278.9 147.3 -255.1C194.5 -231.3 238.8 -197.1 264.7 -152.8C290.6 -108.6 298.1 -54.3 305.7 0L0 0Z" fill="#3d2f9e"></path><path d="M0 -203.8C33.4 -194.9 66.7 -186 98.2 -170.1C129.7 -154.2 159.2 -131.4 176.5 -101.9C193.7 -72.4 198.8 -36.2 203.8 0L0 0Z" fill="#6e34d9"></path><path d="M0 -101.9C16.7 -97.4 33.4 -93 49.1 -85C64.8 -77.1 79.6 -65.7 88.2 -50.9C96.9 -36.2 99.4 -18.1 101.9 0L0 0Z" fill="#8c30f5"></path></g></svg>